<svg aria-hidden="true" style="position:absolute;width:0;height:0" xmlns="http://www.w3.org/2000/svg" overflow="hidden"><defs><symbol id="icon-os-antenna" viewBox="0 0 64 32"><path fill="var(--color1, #212121)" d="M14.361 10.312l-3.94-3.969.437-2.154a.979.979 0 00.354.068h.015a1.008 1.008 0 10-.948-.663l-.002-.007-2.315.283L4.186.075a.244.244 0 00-.35-.002l-.705.702a.248.248 0 000 .352l.38.385a6.89 6.89 0 00-.847 3.332c0 1.916.773 3.651 2.023 4.912.02.019.043.034.068.045a1.347 1.347 0 00-.024.255v2.888H1.744a1.246 1.246 0 00-1.245 1.244v.498c0 .138.112.249.249.249h11.449a.249.249 0 00.249-.249v-.498a1.245 1.245 0 00-1.244-1.244H8.215v-1.28a6.89 6.89 0 004.744-.701l-.036.018.382.384a.244.244 0 00.35.002l.706-.702a.248.248 0 000-.352zm-3.497-7.403a.498.498 0 11.351.851h-.002a.498.498 0 01-.348-.851h-.001zm-.586 1.635l-.279 1.375-.548-.552.828-.823zm-.283-.421l-.896.891-.693-.697 1.589-.194zm1.207 9.317c.412 0 .747.334.747.747v.249H.998v-.249c0-.412.334-.747.747-.747h9.458zm-3.484-.996v.498H5.229v-.498h2.489zm-2.489-.497v-1.892c0-.604.558-1.095 1.244-1.095s1.245.491 1.245 1.095v1.892H5.229zm2.986-.792v-1.1c0-.878-.781-1.593-1.742-1.593h-.027c-.631 0-1.185.33-1.5.826l-.004.007a6.449 6.449 0 01-1.779-4.457c0-1.08.264-2.098.732-2.993l-.017.036 8.681 8.731a6.471 6.471 0 01-4.387.534l.043.008zm5.269-.319L3.657.952l.352-.351 3.703 3.724c.002 0 .003.003.004.004l6.12 6.156-.353.351z"/><path fill="var(--color2, #2196f3)" d="M6.475 9.458h-.003a.747.747 0 00-.002 1.494h.003a.747.747 0 00.001-1.494zm.174.923a.249.249 0 11-.176-.426.25.25 0 01.175.425h.002z"/></symbol><symbol id="icon-os-astronaut" viewBox="0 0 64 32"><path fill="var(--color2, #2196f3)" d="M14.921 2.111a.25.25 0 00-.199-.169h-.001l-.892-.13-.399-.808c-.084-.17-.363-.17-.446 0l-.399.808-.892.13a.249.249 0 00-.138.424l.646.629-.152.888a.25.25 0 00.363.262l-.001.001.797-.419.797.419a.249.249 0 00.361-.264v.002l-.152-.888.645-.629a.248.248 0 00.062-.257l.001.002zm-1.149.62a.25.25 0 00-.071.22l.089.52-.467-.245a.25.25 0 00-.233 0l.001-.001-.467.245.089-.52a.248.248 0 00-.071-.22l-.378-.368.522-.076a.253.253 0 00.188-.136l.233-.473.234.473a.245.245 0 00.188.136l.522.076-.378.368zm-1.576 6.846h-.498v.498h.498v-.498zm0 .996h-.498v.498h.498v-.498zm.497-.498h-.498v.498h.498v-.498zm-.995 0H11.2v.498h.498v-.498zm-1.245 2.24h-.498v.498h.498v-.498zm0 .995h-.498v.498h.498v-.498zm.498-.497h-.498v.498h.498v-.498zm-.995 0h-.498v.498h.498v-.498zm-2.489-1.494h-.498v.498h.498v-.498zm0 .996h-.498v.498h.498v-.498zm.497-.498h-.498v.498h.498v-.498zm-.995 0h-.498v.498h.498v-.498zm-4.231-8.96H2.24v.498h.498v-.498zm0 .996H2.24v.498h.498v-.498zm.497-.498h-.498v.498h.498v-.498zm-.995 0h-.498v.498h.498v-.498z"/><path fill="var(--color1, #212121)" d="M11.533 6.608a.826.826 0 00-.55-.328h-.004a.823.823 0 00-.626.166l.002-.001-.585.448-.886.661-.634-.253a3.237 3.237 0 001.92-2.949c0-1.784-1.457-3.236-3.248-3.236S3.673 2.568 3.673 4.352c0 .647.193 1.248.523 1.754l-1.292-.011-.011.002a.256.256 0 00-.074.015l.002-.001-.018.006-.009.003-1.509.745h-.001l-.883.425a.214.214 0 00-.03.017h.001a.83.83 0 00-.277 1.076l-.002-.005a.83.83 0 00.487.413l.006.002a.83.83 0 00.648-.062l-.004.002.648-.344 1.056-.546.633-.004-2.54 2.527-.001.001-.625.622a.768.768 0 00-.229.547v.002a.777.777 0 00.778.777h.002a.78.78 0 00.551-.227l.613-.611.812-.607.42.419-1.447 1.441a.769.769 0 00-.229.548v.002a.776.776 0 00.778.776h.002a.784.784 0 00.551-.226l2.095-2.087.01-.007 2.411-2.64 1.62.23a.237.237 0 00.122-.015l.023-.011c.009-.004.018-.007.027-.013l1.5-.995c.006-.004.009-.01.014-.014s.013-.007.019-.012l.593-.556a.829.829 0 00.097-1.105l.002.002zM.994 8.293a.335.335 0 01-.36-.563l.001-.001.613-.295.148.431.062.181-.463.246zm1.632-.853l-.723.373-.119-.348-.086-.25.946-.467-.019.692zm7.047-3.09c0 .429-.102.833-.279 1.194l-1.951-.886a.871.871 0 00-.365-.646l-.003-.002.683-2.268A2.743 2.743 0 019.674 4.35zm-5.502 0A2.747 2.747 0 017.27 1.637l-.668 2.218c-.009 0-.017-.003-.027-.003a.873.873 0 00-.873.871.872.872 0 001.628.43l1.803.819a2.75 2.75 0 01-2.211 1.115 2.747 2.747 0 01-2.751-2.738zm2.78.374a.375.375 0 01-.376.373h-.001a.375.375 0 01-.375-.373c0-.206.169-.373.376-.373s.376.167.376.373zM1.15 11.735a.282.282 0 01-.399 0c-.051-.05-.082-.12-.082-.197s.031-.147.082-.197l.449-.447.398.396-.447.446zm1.5 1.742a.282.282 0 01-.399 0c-.051-.05-.082-.12-.082-.197s.031-.147.082-.197l.449-.448.397.396-.448.446zm1.625-1.619l-.001.001-.823.821-.398-.396.824-.82c.019-.019.03-.041.042-.063.003-.006.009-.012.012-.019.008-.019.009-.04.012-.06.002-.012.006-.022.006-.034 0-.017-.006-.033-.009-.049-.003-.015-.003-.03-.009-.045a.225.225 0 00-.043-.064c-.005-.006-.006-.013-.012-.018s0-.001 0-.001l-.75-.747c-.008-.008-.018-.011-.027-.018a.204.204 0 00-.039-.026l-.001-.001a.23.23 0 00-.042-.015h-.002a.218.218 0 00-.047-.009h-.012a.198.198 0 00-.035.003h.001c-.017.002-.032.004-.048.01s-.031.013-.045.021l.001-.001c-.009.005-.02.007-.028.013l-.828.618-.42-.419 1.119-1.114 2.035 2.002-.433.429zm3.182-3.274c-.007-.001-.014.002-.021.001h-.012a.202.202 0 00-.043.004h.001a.219.219 0 00-.087.033l.001-.001a.232.232 0 00-.039.029c-.006.005-.013.008-.019.014l-2.192 2.401-2.02-1.986 1.322-1.315a.249.249 0 00-.176-.425h-.001l-1.036.006.013-.75 1.449.012c.59.605 1.413.98 2.323.98h.002c.204 0 .403-.021.597-.057.019.015.037.03.06.039l1.125.448.071.354.083.413-1.401-.199zm1.885.083l-.146-.727.675-.504.442.587-.971.644zm1.752-1.321l-.391.367-.435-.577.388-.297a.336.336 0 01.543.265.335.335 0 01-.105.243z"/><path fill="var(--color1, #212121)" d="M6.348 8.654l-1-.996a.248.248 0 00-.352 0l-1 .996a.25.25 0 000 .352l1 .996a.248.248 0 00.352 0l1-.996a.248.248 0 000-.352zm-1.176.821l-.647-.644.647-.644.647.644-.647.644zM8.01 2.366l-.12.483c.033.008.811.211.811 1.003h.498c0-.941-.777-1.384-1.188-1.486zM9.198 4.35H8.7v.498h.498V4.35z"/></symbol><symbol id="icon-os-clock" viewBox="0 0 64 32"><path fill="var(--color1, #212121)" d="M14.605 7.14a7.142 7.142 0 10-14.284.004 7.147 7.147 0 004.919 6.788l.051.014a.313.313 0 00.247-.031.298.298 0 00.132-.166l1.804-5.717a.893.893 0 10-.397-1.695l.005-.002-2.383-2.383a.298.298 0 00-.422.422l2.381 2.384a.872.872 0 00.249 1.076l.002.001-1.718 5.447a6.554 6.554 0 118.415-3.884 6.592 6.592 0 01-3.441 3.704l-.041.017-.186-.875a.297.297 0 00-.49-.16l-1.79 1.599a.298.298 0 00.106.505l.002.001 2.286.73a.297.297 0 00.381-.347v.002l-.182-.858c2.58-1.108 4.353-3.627 4.353-6.56V7.14v.001zm-7.142-.297a.298.298 0 010 .596.298.298 0 010-.596zm.98 6.937l1.019-.909.281 1.325-1.301-.416z"/><path fill="var(--color2, #2196f3)" d="M7.165 1.486v.595a.298.298 0 00.596 0v-.595a.298.298 0 00-.596 0zM1.809 6.843a.298.298 0 000 .596h.595a.298.298 0 000-.596h-.595zm11.308.595a.298.298 0 000-.596h-.595a.298.298 0 000 .596h.595z"/></symbol><symbol id="icon-os-diagram" viewBox="0 0 64 32"><path fill="var(--color2, #2196f3)" d="M6.965 6.983h.497v2.239h-.497V6.983zm1.99.996h.498v1.244h-.498V7.979zm-3.98.746h.497v.498h-.497v-.498zm-1.492-.249h.498v.746h-.498v-.747z"/><path fill="var(--color1, #212121)" d="M.746 13.202h11.94a.746.746 0 00.746-.746v-.995a.746.746 0 00-.746-.746h-.249V4.511l1.413-1.338a.75.75 0 10-.347-.351l-.002-.005-1.065 1.009v-.574a.746.746 0 00-.746-.746H1.74a.746.746 0 00-.746.746v7.463H.745a.746.746 0 00-.746.746v.995c0 .412.334.746.746.746zM14.179 2.257a.249.249 0 010 .498.249.249 0 010-.498zm-12.687.995c0-.137.111-.249.249-.249h9.95c.137 0 .249.111.249.249v1.045l-.498.473V3.75a.249.249 0 00-.249-.249H2.238a.249.249 0 00-.249.249v6.219a.25.25 0 00.249.249h8.955a.248.248 0 00.249-.249V5.454l.498-.471v5.732H1.492V3.253zm2.239 3.234h-.002a.746.746 0 10.519 1.282l.865.434c.1.05.222.027.297-.057l1.838-2.068 1.807 1.354a.248.248 0 00.32-.018l1.57-1.488V9.72H2.487V3.998h8.458V5.24l-1.76 1.667-1.822-1.366a.247.247 0 00-.335.033L5.165 7.671l-.697-.348a.582.582 0 00.009-.089v-.001a.746.746 0 00-.746-.746zm.249.746a.249.249 0 01-.498 0 .249.249 0 01.498 0zm1.493 3.98H7.96v.249a.249.249 0 01-.249.249h-1.99a.249.249 0 01-.249-.249v-.249zm-4.975.249c0-.137.111-.249.249-.249h4.229v.249c0 .412.334.746.746.746h1.99a.746.746 0 00.746-.746v-.249h4.229c.137 0 .249.111.249.249v.995a.249.249 0 01-.249.249H.747a.249.249 0 01-.249-.249v-.995z"/></symbol></defs></svg>