<svg aria-hidden="true" style="position:absolute;width:0;height:0" xmlns="http://www.w3.org/2000/svg" overflow="hidden"><defs><symbol id="icon-facebook" viewBox="0 0 64 32"><path fill="var(--color1, #fff)" d="M2.844.708h.39V.03A4.88 4.88 0 002.686 0h-.021.001c-.562 0-.946.353-.946 1.003V1.6H1.1v.758h.62v1.908h.76V2.358h.595L3.17 1.6h-.689v-.523c0-.219.059-.369.364-.369z"/></symbol><symbol id="icon-icon-send" viewBox="0 0 64 32"><path fill="var(--color1, #fff)" d="M5.12 0L0 2.88l1.636.606L4.16 1.12 2.24 3.71h.002-.002v1.41l.918-1.071 1.163.431.8-4.48z"/></symbol><symbol id="icon-instagram" viewBox="0 0 64 32"><path fill="var(--color1, #fff)" d="M4.262 1.254a1.548 1.548 0 00-.099-.518 1.056 1.056 0 00-.247-.378 1.061 1.061 0 00-.37-.244L3.539.112a1.58 1.58 0 00-.518-.099C2.793.002 2.72 0 2.141 0s-.652.003-.879.013C1.035.023.879.059.745.112a1.06 1.06 0 00-.379.247C.26.463.177.589.123.729L.121.736a1.553 1.553 0 00-.099.518c-.011.228-.013.301-.013.88s.003.652.013.879c.01.227.047.382.099.518.057.148.141.274.246.378.107.108.236.192.378.246.136.053.291.089.518.099.228.01.3.013.879.013s.652-.003.879-.013c.227-.01.382-.046.518-.099.288-.113.511-.337.622-.617l.003-.007a1.58 1.58 0 00.099-.518c.01-.228.012-.3.012-.879s-.001-.652-.011-.879zm-.384 1.742a1.174 1.174 0 01-.073.396.71.71 0 01-.401.403l-.005.002a1.174 1.174 0 01-.396.073c-.225.01-.292.013-.862.013s-.638-.003-.862-.013a1.174 1.174 0 01-.396-.073.662.662 0 01-.245-.159.67.67 0 01-.158-.24l-.002-.005a1.174 1.174 0 01-.073-.396c-.01-.225-.013-.293-.013-.862s.003-.638.013-.862C.414 1.065.449.952.478.877a.652.652 0 01.16-.245.665.665 0 01.241-.158L.884.472c.075-.029.188-.064.396-.073.225-.01.293-.012.862-.012s.638.003.862.012c.208.009.321.044.396.073a.653.653 0 01.245.159.661.661 0 01.159.245c.029.075.064.188.073.396.01.225.013.292.013.862s-.003.636-.013.861z"/><path fill="var(--color1, #fff)" d="M2.141 1.038c-.605 0-1.096.491-1.096 1.096a1.097 1.097 0 002.192.001v-.001c0-.605-.491-1.096-1.096-1.096zm0 1.807a.71.71 0 110-1.422.71.71 0 110 1.422zM3.537.994a.256.256 0 01-.512 0 .256.256 0 01.512 0z"/></symbol><symbol id="icon-linkedin" viewBox="0 0 64 32"><path fill="var(--color1, #fff)" d="M4.266 4.267h.001V2.702c0-.765-.165-1.355-1.06-1.355-.43 0-.719.236-.837.46h-.012v-.388h-.849v2.848h.884v-1.41c0-.371.07-.731.53-.731.453 0 .46.424.46.754v1.387h.883zM.07 1.418h.885v2.849H.07V1.418zM.512 0A.512.512 0 000 .512c0 .283.23.517.512.517s.512-.234.512-.517A.512.512 0 00.512 0z"/></symbol><symbol id="icon-nav-envelope" viewBox="0 0 64 32"><path fill="var(--color2, #757575)" d="M3.093 0H.32C.144 0 0 .134 0 .299v1.792c0 .165.144.299.32.299h2.773c.176 0 .32-.134.32-.299V.299c0-.165-.144-.299-.32-.299zm0 .199c.014 0 .028.003.041.008L1.706 1.362.278.207A.107.107 0 01.319.199h2.773zm0 1.992H.32c-.059 0-.107-.045-.107-.099V.418L1.636 1.57a.111.111 0 00.069.024h.002c.026 0 .05-.009.07-.024L3.2.418v1.674c0 .055-.048.099-.107.099z"/></symbol><symbol id="icon-nav-smartphone" viewBox="0 0 64 32"><path fill="var(--color2, #757575)" d="M1.813 0H.32C.144 0 0 .134 0 .299v2.589c0 .165.144.299.32.299h1.493c.176 0 .32-.134.32-.299V.299c0-.165-.144-.299-.32-.299zM.32.199h1.493c.059 0 .107.045.107.1V2.39H.213V.299c0-.055.048-.1.107-.1zm1.493 2.788H.32c-.059 0-.107-.045-.107-.1v-.299H1.92v.299c0 .055-.048.099-.107.099z"/><path fill="var(--color2, #757575)" d="M.502 2.718c.019.017.031.042.031.07s-.012.053-.031.07c-.02.018-.046.029-.076.029S.37 2.876.35 2.858c-.019-.017-.031-.042-.031-.07s.012-.053.031-.07c.02-.018.046-.029.076-.029s.056.011.076.029z"/></symbol><symbol id="icon-twitter" viewBox="0 0 64 32"><path fill="var(--color1, #fff)" d="M4.267.81a1.777 1.777 0 01-.495.137l-.009.001a.874.874 0 00.383-.477l.002-.006c-.16.096-.345.17-.543.21l-.011.002a.874.874 0 00-1.512.597.92.92 0 00.02.199A2.474 2.474 0 01.299.558a.876.876 0 00.268 1.169.853.853 0 01-.399-.11l.004.002v.01a.88.88 0 00.695.859l.006.001a.864.864 0 01-.222.029H.643a.766.766 0 01-.166-.015.883.883 0 00.817.609 1.744 1.744 0 01-1.083.373h-.01a1.79 1.79 0 01-.209-.013L0 3.473a2.44 2.44 0 001.334.393h.008c1.61 0 2.49-1.333 2.49-2.489 0-.038-.001-.076-.003-.113.173-.125.319-.275.434-.447l.004-.006z"/></symbol></defs></svg>